<svg height="100" width="100" fill="#1A1A1A" xmlns="http://www.w3.org/2000/svg" viewBox="0 0 64 64"><path d="M36.991 20.991 37 22.7l2 3V21h2v7.691l1.052 1.576A6.425 6.425 0 0 0 43 27v-6.006a3.011 3.011 0 0 0-5.152-2.1 2.921 2.921 0 0 0-.857 2.097ZM35.465 24h-12.92L17 32.317V36a.9.9 0 0 1-.014.164l-1 6a1.862 1.862 0 0 0 1.365 1.9c.033.013.811.4.811.4-.015-.064-.043-.123-.056-.189-.327-1.7.426-3.963 3.522-5.2a9.2 9.2 0 0 0 4.226-3.178A3.833 3.833 0 0 1 29 34a3.833 3.833 0 0 1 3.146 1.893 9.2 9.2 0 0 0 4.226 3.178c3.1 1.24 3.849 3.5 3.522 5.2-.013.066-.041.125-.056.189 0 0 .778-.387.811-.4a1.867 1.867 0 0 0 1.359-1.939l-.994-5.96A.9.9 0 0 1 41 36v-3.7ZM21 36a2 2 0 1 1 2-2 2 2 0 0 1-2 2Zm10.445-2.153a4.627 4.627 0 0 0-4.89 0l-1.11-1.664a6.607 6.607 0 0 1 7.11 0ZM37 36a2 2 0 1 1 2-2 2 2 0 0 1-2 2Z"/><circle cx="29" cy="37" r="1"/><path d="M21 22.633v-1.618a2.944 2.944 0 0 0-.864-2.116A3 3 0 0 0 15 21.015v6a6.365 6.365 0 0 0 .942 3.26L17 28.677V21h2v4.655ZM28.2 42.4a1.036 1.036 0 0 1 1.6 0l2.7 3.6H35a2.845 2.845 0 0 0 2.93-2.1c.229-1.19-.632-2.3-2.3-2.967a11.1 11.1 0 0 1-3.973-2.561 2.976 2.976 0 0 1-5.31 0 11.1 11.1 0 0 1-3.973 2.561c-1.67.668-2.531 1.777-2.3 2.967A2.845 2.845 0 0 0 23 46h2.5Z"/><path d="M29 44.667 28 46h2l-1-1.333zM40 13a1 1 0 0 0 1 1h3.11a3.727 3.727 0 0 1 .619-2H41a1 1 0 0 0-1 1Z"/><path d="m56.105 15.447-3.839-7.678L43.788 4H38a1 1 0 0 0-.986 1.176A1.086 1.086 0 0 0 38.107 6H43a1 1 0 0 1 .707.293l9 9-1.414 1.414L47 12.414l-.293.293a1.714 1.714 0 0 0 0 2.586l5.061 6.066A3.91 3.91 0 0 0 55 23h5v-7h-3a1 1 0 0 1-.895-.553Z"/><path d="M40 8a1 1 0 0 0 0 2h4.586l-2-2ZM21 50h-3.11a3.727 3.727 0 0 1-.619 2H21a1 1 0 0 0 0-2Z"/><path d="M24 60a1 1 0 0 0 .986-1.176A1.086 1.086 0 0 0 23.893 58H19a1 1 0 0 1-.707-.293l-9-9 1.414-1.414L15 51.586l.293-.293a1.714 1.714 0 0 0 0-2.586l-5.061-6.066A3.91 3.91 0 0 0 7 41H4v7h1a1 1 0 0 1 .895.553l3.839 7.678L18.212 60Z"/><path d="M19.414 56H22a1 1 0 0 0 0-2h-4.586ZM5 31h2v2H5zM5 35h2v2H5zM5 12.816V14h2v-1.184a2.746 2.746 0 0 0 .285-.117l1.008 1.008 1.414-1.414L8.7 11.285A2.746 2.746 0 0 0 8.816 11H10V9H8.816a2.746 2.746 0 0 0-.116-.285l1.007-1.008-1.414-1.414L7.285 7.3A2.746 2.746 0 0 0 7 7.184V6H5v1.184a2.746 2.746 0 0 0-.285.117L3.707 6.293 2.293 7.707 3.3 8.715A2.746 2.746 0 0 0 3.184 9H2v2h1.184a2.746 2.746 0 0 0 .117.285l-1.008 1.008 1.414 1.414L4.715 12.7a2.746 2.746 0 0 0 .285.116ZM6 9a1 1 0 1 1-1 1 1 1 0 0 1 1-1ZM47.707 57.707l1.008-1.007a2.746 2.746 0 0 0 .285.117V58h2v-1.184a2.746 2.746 0 0 0 .285-.117l1.008 1.008 1.414-1.414-1.007-1.008a2.746 2.746 0 0 0 .116-.285H54v-2h-1.184a2.746 2.746 0 0 0-.117-.285l1.008-1.008-1.414-1.414-1.008 1.007a2.746 2.746 0 0 0-.285-.116V50h-2v1.184a2.746 2.746 0 0 0-.285.117l-1.008-1.008-1.414 1.414 1.007 1.008a2.746 2.746 0 0 0-.117.285H46v2h1.184a2.746 2.746 0 0 0 .117.285l-1.008 1.008ZM50 53a1 1 0 1 1-1 1 1 1 0 0 1 1-1ZM54 44h2v2h-2zM40 55h2v2h-2zM12 5h2v2h-2zM57 48h2v2h-2zM29 53v2c13.551 0 25-10.99 25-24a22.043 22.043 0 0 0-.941-6.285l-1.917.57A20.074 20.074 0 0 1 52 31c0 11.925-10.533 22-23 22ZM7 29.086A22.176 22.176 0 0 1 29 9a20.329 20.329 0 0 1 5.987.955l.591-1.91A22.332 22.332 0 0 0 29 7 24.188 24.188 0 0 0 5 28.914Z"/></svg>