<svg height='100px' width='100px'  fill="#1A1A1A" xmlns="http://www.w3.org/2000/svg" viewBox="0 0 64 64" x="0px" y="0px"><g><path d="M36.991,20.991,37,22.7l2,3V21h2v7.691l1.052,1.576A6.425,6.425,0,0,0,43,27V20.994a3.011,3.011,0,0,0-5.152-2.1A2.921,2.921,0,0,0,36.991,20.991Z"></path><path d="M35.465,24H22.545L17,32.317V36a.9.9,0,0,1-.014.164l-1,6a1.862,1.862,0,0,0,1.365,1.9c.033.013.811.4.811.4-.015-.064-.043-.123-.056-.189-.327-1.7.426-3.963,3.522-5.2a9.2,9.2,0,0,0,4.226-3.178A3.833,3.833,0,0,1,29,34a3.833,3.833,0,0,1,3.146,1.893,9.2,9.2,0,0,0,4.226,3.178c3.1,1.24,3.849,3.5,3.522,5.2-.013.066-.041.125-.056.189,0,0,.778-.387.811-.4a1.867,1.867,0,0,0,1.359-1.939l-.994-5.96A.9.9,0,0,1,41,36V32.3ZM21,36a2,2,0,1,1,2-2A2,2,0,0,1,21,36Zm10.445-2.153a4.627,4.627,0,0,0-4.89,0l-1.11-1.664a6.607,6.607,0,0,1,7.11,0ZM37,36a2,2,0,1,1,2-2A2,2,0,0,1,37,36Z"></path><circle cx="29" cy="37" r="1"></circle><path d="M21,22.633V21.015a2.944,2.944,0,0,0-.864-2.116A3,3,0,0,0,15,21.015v6a6.365,6.365,0,0,0,.942,3.26L17,28.677V21h2v4.655Z"></path><path d="M28.2,42.4a1.036,1.036,0,0,1,1.6,0L32.5,46H35a2.845,2.845,0,0,0,2.93-2.1c.229-1.19-.632-2.3-2.3-2.967a11.1,11.1,0,0,1-3.973-2.561,2.976,2.976,0,0,1-5.31,0,11.1,11.1,0,0,1-3.973,2.561c-1.67.668-2.531,1.777-2.3,2.967A2.845,2.845,0,0,0,23,46h2.5Z"></path><polygon points="29 44.667 28 46 30 46 29 44.667"></polygon><path d="M40,13a1,1,0,0,0,1,1h3.11a3.727,3.727,0,0,1,.619-2H41A1,1,0,0,0,40,13Z"></path><path d="M56.105,15.447,52.266,7.769,43.788,4H38a1,1,0,0,0-.986,1.176A1.086,1.086,0,0,0,38.107,6H43a1,1,0,0,1,.707.293l9,9-1.414,1.414L47,12.414l-.293.293a1.714,1.714,0,0,0,0,2.586l5.061,6.066A3.91,3.91,0,0,0,55,23h5V16H57A1,1,0,0,1,56.105,15.447Z"></path><path d="M40,8a1,1,0,0,0,0,2h4.586l-2-2Z"></path><path d="M21,50H17.89a3.727,3.727,0,0,1-.619,2H21a1,1,0,0,0,0-2Z"></path><path d="M24,60a1,1,0,0,0,.986-1.176A1.086,1.086,0,0,0,23.893,58H19a1,1,0,0,1-.707-.293l-9-9,1.414-1.414L15,51.586l.293-.293a1.714,1.714,0,0,0,0-2.586l-5.061-6.066A3.91,3.91,0,0,0,7,41H4v7H5a1,1,0,0,1,.895.553l3.839,7.678L18.212,60Z"></path><path d="M19.414,56H22a1,1,0,0,0,0-2H17.414Z"></path><rect x="5" y="31" width="2" height="2"></rect><rect x="5" y="35" width="2" height="2"></rect><path d="M5,12.816V14H7V12.816a2.746,2.746,0,0,0,.285-.117l1.008,1.008,1.414-1.414L8.7,11.285A2.746,2.746,0,0,0,8.816,11H10V9H8.816A2.746,2.746,0,0,0,8.7,8.715L9.707,7.707,8.293,6.293,7.285,7.3A2.746,2.746,0,0,0,7,7.184V6H5V7.184a2.746,2.746,0,0,0-.285.117L3.707,6.293,2.293,7.707,3.3,8.715A2.746,2.746,0,0,0,3.184,9H2v2H3.184a2.746,2.746,0,0,0,.117.285L2.293,12.293l1.414,1.414L4.715,12.7A2.746,2.746,0,0,0,5,12.816ZM6,9a1,1,0,1,1-1,1A1,1,0,0,1,6,9Z"></path><path d="M47.707,57.707,48.715,56.7a2.746,2.746,0,0,0,.285.117V58h2V56.816a2.746,2.746,0,0,0,.285-.117l1.008,1.008,1.414-1.414L52.7,55.285A2.746,2.746,0,0,0,52.816,55H54V53H52.816a2.746,2.746,0,0,0-.117-.285l1.008-1.008-1.414-1.414L51.285,51.3A2.746,2.746,0,0,0,51,51.184V50H49v1.184a2.746,2.746,0,0,0-.285.117l-1.008-1.008-1.414,1.414L47.3,52.715a2.746,2.746,0,0,0-.117.285H46v2h1.184a2.746,2.746,0,0,0,.117.285l-1.008,1.008ZM50,53a1,1,0,1,1-1,1A1,1,0,0,1,50,53Z"></path><rect x="54" y="44" width="2" height="2"></rect><rect x="40" y="55" width="2" height="2"></rect><rect x="12" y="5" width="2" height="2"></rect><rect x="57" y="48" width="2" height="2"></rect><path d="M29,53v2c13.551,0,25-10.99,25-24a22.043,22.043,0,0,0-.941-6.285l-1.917.57A20.074,20.074,0,0,1,52,31C52,42.925,41.467,53,29,53Z"></path><path d="M7,29.086A22.176,22.176,0,0,1,29,9a20.329,20.329,0,0,1,5.987.955l.591-1.91A22.332,22.332,0,0,0,29,7,24.188,24.188,0,0,0,5,28.914Z"></path></g></svg>