<?xml version="1.0" encoding="UTF-8" standalone="no"?>
<!-- Created with Inkscape (http://www.inkscape.org/) -->

<svg
   width="1000"
   height="1000"
   viewBox="0 0 264.58333 264.58333"
   version="1.1"
   id="svg5"
   inkscape:version="1.1 (c68e22c387, 2021-05-23)"
   sodipodi:docname="social-2.svg"
   xmlns:inkscape="http://www.inkscape.org/namespaces/inkscape"
   xmlns:sodipodi="http://sodipodi.sourceforge.net/DTD/sodipodi-0.dtd"
   xmlns="http://www.w3.org/2000/svg"
   xmlns:svg="http://www.w3.org/2000/svg">
  <sodipodi:namedview
     id="namedview7"
     pagecolor="#ffffff"
     bordercolor="#666666"
     borderopacity="1.0"
     inkscape:pageshadow="2"
     inkscape:pageopacity="0.0"
     inkscape:pagecheckerboard="0"
     inkscape:document-units="mm"
     showgrid="false"
     fit-margin-top="0"
     fit-margin-left="0"
     fit-margin-right="0"
     fit-margin-bottom="0"
     units="px"
     inkscape:zoom="0.80087682"
     inkscape:cx="550.02216"
     inkscape:cy="294.05271"
     inkscape:window-width="2560"
     inkscape:window-height="1377"
     inkscape:window-x="-8"
     inkscape:window-y="-8"
     inkscape:window-maximized="1"
     inkscape:current-layer="layer1" />
  <defs
     id="defs2" />
  <g
     inkscape:label="Layer 1"
     inkscape:groupmode="layer"
     id="layer1"
     transform="translate(-58.428631,-107.32294)">
    <rect
       style="fill:#4d4d4d;fill-opacity:0.815421;stroke:none;stroke-width:3.47501;stroke-opacity:0.678431"
       id="rect858"
       width="264.58334"
       height="264.58334"
       x="58.428631"
       y="107.32294" />
    <g
       style="fill:#ffffff;fill-opacity:1"
       id="g1397"
       transform="matrix(3.154668,0,0,3.154668,92.92559,177.30921)">
      <g
         id="g1366"
         style="fill:#ffffff;fill-opacity:1">
        <path
           d="M 36.991,20.991 37,22.7 l 2,3 V 21 h 2 v 7.691 l 1.052,1.576 A 6.425,6.425 0 0 0 43,27 v -6.006 a 3.011,3.011 0 0 0 -5.152,-2.1 2.921,2.921 0 0 0 -0.857,2.097 z"
           id="path1322"
           style="fill:#ffffff;fill-opacity:1" />
        <path
           d="M 35.465,24 H 22.545 L 17,32.317 V 36 a 0.9,0.9 0 0 1 -0.014,0.164 l -1,6 a 1.862,1.862 0 0 0 1.365,1.9 c 0.033,0.013 0.811,0.4 0.811,0.4 -0.015,-0.064 -0.043,-0.123 -0.056,-0.189 -0.327,-1.7 0.426,-3.963 3.522,-5.2 A 9.2,9.2 0 0 0 25.854,35.897 3.833,3.833 0 0 1 29,34 a 3.833,3.833 0 0 1 3.146,1.893 9.2,9.2 0 0 0 4.226,3.178 c 3.1,1.24 3.849,3.5 3.522,5.2 -0.013,0.066 -0.041,0.125 -0.056,0.189 0,0 0.778,-0.387 0.811,-0.4 a 1.867,1.867 0 0 0 1.359,-1.939 l -0.994,-5.96 A 0.9,0.9 0 0 1 41,36 V 32.3 Z M 21,36 a 2,2 0 1 1 2,-2 2,2 0 0 1 -2,2 z m 10.445,-2.153 a 4.627,4.627 0 0 0 -4.89,0 l -1.11,-1.664 a 6.607,6.607 0 0 1 7.11,0 z M 37,36 a 2,2 0 1 1 2,-2 2,2 0 0 1 -2,2 z"
           id="path1324"
           style="fill:#ffffff;fill-opacity:1" />
        <circle
           cx="29"
           cy="37"
           r="1"
           id="circle1326"
           style="fill:#ffffff;fill-opacity:1" />
        <path
           d="M 21,22.633 V 21.015 A 2.944,2.944 0 0 0 20.136,18.899 3,3 0 0 0 15,21.015 v 6 a 6.365,6.365 0 0 0 0.942,3.26 L 17,28.677 V 21 h 2 v 4.655 z"
           id="path1328"
           style="fill:#ffffff;fill-opacity:1" />
        <path
           d="m 28.2,42.4 a 1.036,1.036 0 0 1 1.6,0 L 32.5,46 H 35 a 2.845,2.845 0 0 0 2.93,-2.1 c 0.229,-1.19 -0.632,-2.3 -2.3,-2.967 a 11.1,11.1 0 0 1 -3.973,-2.561 2.976,2.976 0 0 1 -5.31,0 11.1,11.1 0 0 1 -3.973,2.561 c -1.67,0.668 -2.531,1.777 -2.3,2.967 A 2.845,2.845 0 0 0 23,46 h 2.5 z"
           id="path1330"
           style="fill:#ffffff;fill-opacity:1" />
        <polygon
           points="29,44.667 28,46 30,46 "
           id="polygon1332"
           style="fill:#ffffff;fill-opacity:1" />
        <path
           d="m 40,13 a 1,1 0 0 0 1,1 h 3.11 a 3.727,3.727 0 0 1 0.619,-2 H 41 a 1,1 0 0 0 -1,1 z"
           id="path1334"
           style="fill:#ffffff;fill-opacity:1" />
        <path
           d="M 56.105,15.447 52.266,7.769 43.788,4 H 38 A 1,1 0 0 0 37.014,5.176 1.086,1.086 0 0 0 38.107,6 H 43 a 1,1 0 0 1 0.707,0.293 l 9,9 -1.414,1.414 L 47,12.414 46.707,12.707 a 1.714,1.714 0 0 0 0,2.586 l 5.061,6.066 A 3.91,3.91 0 0 0 55,23 h 5 v -7 h -3 a 1,1 0 0 1 -0.895,-0.553 z"
           id="path1336"
           style="fill:#ffffff;fill-opacity:1" />
        <path
           d="m 40,8 a 1,1 0 0 0 0,2 h 4.586 l -2,-2 z"
           id="path1338"
           style="fill:#ffffff;fill-opacity:1" />
        <path
           d="m 21,50 h -3.11 a 3.727,3.727 0 0 1 -0.619,2 H 21 a 1,1 0 0 0 0,-2 z"
           id="path1340"
           style="fill:#ffffff;fill-opacity:1" />
        <path
           d="M 24,60 A 1,1 0 0 0 24.986,58.824 1.086,1.086 0 0 0 23.893,58 H 19 a 1,1 0 0 1 -0.707,-0.293 l -9,-9 1.414,-1.414 4.293,4.293 0.293,-0.293 a 1.714,1.714 0 0 0 0,-2.586 L 10.232,42.641 A 3.91,3.91 0 0 0 7,41 H 4 v 7 h 1 a 1,1 0 0 1 0.895,0.553 L 9.734,56.231 18.212,60 Z"
           id="path1342"
           style="fill:#ffffff;fill-opacity:1" />
        <path
           d="M 19.414,56 H 22 a 1,1 0 0 0 0,-2 h -4.586 z"
           id="path1344"
           style="fill:#ffffff;fill-opacity:1" />
        <rect
           x="5"
           y="31"
           width="2"
           height="2"
           id="rect1346"
           style="fill:#ffffff;fill-opacity:1" />
        <rect
           x="5"
           y="35"
           width="2"
           height="2"
           id="rect1348"
           style="fill:#ffffff;fill-opacity:1" />
        <path
           d="M 5,12.816 V 14 H 7 V 12.816 A 2.746,2.746 0 0 0 7.285,12.699 L 8.293,13.707 9.707,12.293 8.7,11.285 A 2.746,2.746 0 0 0 8.816,11 H 10 V 9 H 8.816 A 2.746,2.746 0 0 0 8.7,8.715 L 9.707,7.707 8.293,6.293 7.285,7.3 A 2.746,2.746 0 0 0 7,7.184 V 6 H 5 V 7.184 A 2.746,2.746 0 0 0 4.715,7.301 L 3.707,6.293 2.293,7.707 3.3,8.715 A 2.746,2.746 0 0 0 3.184,9 H 2 v 2 h 1.184 a 2.746,2.746 0 0 0 0.117,0.285 L 2.293,12.293 3.707,13.707 4.715,12.7 A 2.746,2.746 0 0 0 5,12.816 Z M 6,9 A 1,1 0 1 1 5,10 1,1 0 0 1 6,9 Z"
           id="path1350"
           style="fill:#ffffff;fill-opacity:1" />
        <path
           d="M 47.707,57.707 48.715,56.7 A 2.746,2.746 0 0 0 49,56.817 V 58 h 2 v -1.184 a 2.746,2.746 0 0 0 0.285,-0.117 l 1.008,1.008 1.414,-1.414 L 52.7,55.285 A 2.746,2.746 0 0 0 52.816,55 H 54 V 53 H 52.816 A 2.746,2.746 0 0 0 52.699,52.715 L 53.707,51.707 52.293,50.293 51.285,51.3 A 2.746,2.746 0 0 0 51,51.184 V 50 h -2 v 1.184 a 2.746,2.746 0 0 0 -0.285,0.117 l -1.008,-1.008 -1.414,1.414 1.007,1.008 A 2.746,2.746 0 0 0 47.183,53 H 46 v 2 h 1.184 a 2.746,2.746 0 0 0 0.117,0.285 l -1.008,1.008 z M 50,53 a 1,1 0 1 1 -1,1 1,1 0 0 1 1,-1 z"
           id="path1352"
           style="fill:#ffffff;fill-opacity:1" />
        <rect
           x="54"
           y="44"
           width="2"
           height="2"
           id="rect1354"
           style="fill:#ffffff;fill-opacity:1" />
        <rect
           x="40"
           y="55"
           width="2"
           height="2"
           id="rect1356"
           style="fill:#ffffff;fill-opacity:1" />
        <rect
           x="12"
           y="5"
           width="2"
           height="2"
           id="rect1358"
           style="fill:#ffffff;fill-opacity:1" />
        <rect
           x="57"
           y="48"
           width="2"
           height="2"
           id="rect1360"
           style="fill:#ffffff;fill-opacity:1" />
        <path
           d="m 29,53 v 2 C 42.551,55 54,44.01 54,31 a 22.043,22.043 0 0 0 -0.941,-6.285 l -1.917,0.57 A 20.074,20.074 0 0 1 52,31 C 52,42.925 41.467,53 29,53 Z"
           id="path1362"
           style="fill:#ffffff;fill-opacity:1" />
        <path
           d="M 7,29.086 A 22.176,22.176 0 0 1 29,9 20.329,20.329 0 0 1 34.987,9.955 l 0.591,-1.91 A 22.332,22.332 0 0 0 29,7 24.188,24.188 0 0 0 5,28.914 Z"
           id="path1364"
           style="fill:#ffffff;fill-opacity:1" />
      </g>
    </g>
    <text
       xml:space="preserve"
       style="font-size:59.216px;line-height:1.25;font-family:'Lucida Console';-inkscape-font-specification:'Lucida Console';text-align:center;letter-spacing:0px;word-spacing:0px;writing-mode:lr-tb;text-anchor:middle;fill:#01bd80;fill-opacity:1;stroke-width:1.38787"
       x="193.52753"
       y="162.78038"
       id="text1941"><tspan
         sodipodi:role="line"
         id="tspan1939"
         style="fill:#01bd80;fill-opacity:1;stroke-width:1.38787"
         x="211.36751"
         y="162.78038">mol.dog </tspan></text>
    <rect
       style="fill:#01bd80;stroke-width:1.112;stroke-opacity:0.678431"
       id="rect870"
       width="42.168457"
       height="22.257618"
       x="282.20566"
       y="227.78391" />
    <rect
       style="fill:#01bd80;stroke-width:1.1714;stroke-opacity:0.678431"
       id="rect870-4"
       width="46.793598"
       height="22.257618"
       x="58.750664"
       y="306.6506" />
  </g>
</svg>
